<svg width="122" height="57" viewBox="0 0 122 57" fill="none" xmlns="http://www.w3.org/2000/svg">
<path d="M39.1313 2.38905C39.3966 2.38905 39.6618 2.30602 39.8682 2.1538C40.4282 1.76632 40.5313 1.01904 40.1187 0.47934C39.7061 -0.032684 38.8808 -0.15723 38.3355 0.216409C37.7754 0.603886 37.6723 1.35116 38.0849 1.89087C38.3355 2.19531 38.7186 2.38905 39.1166 2.38905H39.1313ZM38.6155 0.576209C38.7481 0.47934 38.9102 0.437824 39.0871 0.437824C39.3524 0.437824 39.6029 0.562371 39.7503 0.75611C40.0155 1.10207 39.9566 1.58642 39.6029 1.83551C39.2492 2.0846 38.7334 1.98773 38.4681 1.65561C38.2028 1.30965 38.2618 0.825302 38.6155 0.590048V0.576209Z" fill="black"/>
<path d="M20.2821 10.3462C15.8756 11.8961 12.8839 15.4526 12.0291 19.4934C13.4586 16.8503 15.9051 14.6638 19.1031 13.5429C21.3285 12.7541 23.6422 12.5742 25.8234 12.9201L26.3981 9.6404C24.3938 9.41898 22.3011 9.6404 20.2821 10.3462Z" fill="black"/>
<path d="M50.8036 15.7845C50.3615 15.231 49.7425 14.8573 49.0498 14.6497C49.2856 12.9891 48.873 11.2455 47.7382 9.79244C46.4118 8.10414 44.2749 7.09393 42.0348 7.09393C41.2979 7.09393 40.5905 7.20464 39.9126 7.41222C40.4137 6.48504 40.3547 5.32261 39.6473 4.43694C38.6894 3.21916 36.6851 2.94239 35.4029 3.84189C34.6513 4.36775 34.2534 5.14271 34.1945 5.94534C31.3943 4.47846 28.2111 3.64815 24.8804 3.64815C22.5519 3.64815 20.2676 4.03563 18.0717 4.81058C11.0419 7.28767 6.45857 13.2105 5.64801 19.77L2.72999 12.4771C2.44998 11.799 1.63942 11.4392 0.917283 11.7021C0.195147 11.9651 -0.188027 12.7262 0.0919848 13.4181L16.9516 55.5563C17.2316 56.2344 18.0422 56.5942 18.7643 56.3313C19.4865 56.0683 19.8697 55.3072 19.5896 54.6291L11.8525 35.2968C15.36 38.2859 19.9876 40.0572 24.8804 40.0572C27.2089 40.0572 29.4932 39.6697 31.6891 38.8948C39.3673 36.1824 44.1128 29.3739 44.2159 22.1087C44.2159 22.0395 44.2159 21.9703 44.2159 21.9011C44.2159 21.3061 44.2012 20.6972 44.1423 20.1021C44.098 20.1021 44.0538 20.1159 44.0096 20.1298C44.4075 20.0191 44.8054 19.8807 45.1886 19.7008C45.8518 20.5311 46.8834 21.0154 47.9887 21.0154C48.7403 21.0154 49.4625 20.794 50.0667 20.365C50.8183 19.8392 51.3047 19.0781 51.4373 18.2201C51.5699 17.3482 51.3489 16.4903 50.7888 15.7845H50.8036ZM37.1567 8.9898C37.1567 8.9898 37.142 9.00364 37.1272 9.01748C37.1272 9.01748 37.1272 9.00364 37.1567 8.9898ZM36.0072 4.61684C36.3609 4.36775 36.7735 4.2432 37.2156 4.2432C37.8641 4.2432 38.4536 4.51997 38.8368 5.01816C39.5 5.86231 39.3084 7.05242 38.4241 7.67515C37.5399 8.28404 36.243 8.10414 35.5945 7.27383C34.9313 6.42969 35.1229 5.23958 36.0072 4.61684ZM35.8156 8.67152C35.8156 8.67152 35.7566 8.63 35.7272 8.61617C35.7566 8.63 35.7861 8.65768 35.8156 8.67152ZM35.2556 8.31172C35.0787 8.17333 34.9166 8.00727 34.7692 7.82737C34.6661 7.68899 34.5629 7.53676 34.4892 7.38454C34.5629 7.53676 34.6513 7.68899 34.7692 7.82737C34.9166 8.00727 35.0787 8.1595 35.2556 8.31172ZM30.8638 36.819C28.9332 37.4971 26.9289 37.843 24.8804 37.843C17.8211 37.843 11.4251 33.6777 8.93446 27.478C5.63327 19.2303 10.0987 10 18.897 6.90019C20.8276 6.22211 22.8319 5.87615 24.8804 5.87615C29.1543 5.87615 33.1776 7.42606 36.243 10.0139C34.5629 12.2972 34.4892 15.397 36.3461 17.7496C37.6283 19.3687 39.6621 20.365 41.8137 20.4342C41.8727 20.9878 41.8874 21.5413 41.8727 22.081C41.8727 22.1917 41.8727 22.3024 41.8727 22.4131C41.799 24.1429 41.4306 25.8589 40.7968 27.4642C39.1463 31.6434 35.6535 35.1722 30.8638 36.8605V36.819ZM43.0369 20.3374C43.1106 20.3374 43.1991 20.3097 43.2727 20.2958C43.1991 20.2958 43.1106 20.3235 43.0369 20.3374ZM44.5844 18.4C43.8033 18.7874 42.9338 18.9812 42.0495 18.9812C40.2663 18.9812 38.6304 18.2062 37.5841 16.8639C35.7566 14.5529 36.2724 11.2732 38.7483 9.55718C39.7063 8.89293 40.8558 8.53313 42.0495 8.53313C43.8328 8.53313 45.4539 9.30809 46.515 10.6504C47.4287 11.8129 47.7529 13.2105 47.5319 14.539C46.9571 14.6082 46.3971 14.7743 45.9107 15.1064C44.7907 15.8952 44.3191 17.1822 44.5844 18.4ZM50.5236 18.0955C50.4204 18.7321 50.0667 19.2856 49.5214 19.6731C48.4161 20.4481 46.7655 20.2128 45.955 19.1749C45.1149 18.1094 45.3507 16.6148 46.4855 15.826C46.9276 15.5216 47.4582 15.3555 48.0035 15.3555C48.814 15.3555 49.5656 15.7153 50.052 16.3242C50.4646 16.8362 50.6267 17.4728 50.5236 18.1094V18.0955Z" fill="black"/>
<path d="M53.9277 29.291C53.9277 29.1803 54.0161 29.0835 54.1488 29.0835H56.8163C58.2605 29.0835 59.4395 30.1767 59.4395 31.5052C59.4395 32.8337 58.2605 33.9823 56.831 33.9823H55.1362V36.5701C55.1362 36.6808 55.033 36.7777 54.9151 36.7777H54.1488C54.0161 36.7777 53.9277 36.6808 53.9277 36.5701V29.3049V29.291ZM56.7573 32.9029C57.5679 32.9029 58.2458 32.294 58.2458 31.4914C58.2458 30.7441 57.5679 30.1767 56.7573 30.1767H55.1509V32.9029H56.7573Z" fill="black"/>
<path d="M65.4229 29.2911C65.4229 29.1803 65.5113 29.0835 65.644 29.0835H70.3158C70.4484 29.0835 70.5368 29.1803 70.5368 29.2911V29.8999C70.5368 30.0107 70.4484 30.1075 70.3158 30.1075H66.6167V32.3494H69.741C69.8589 32.3494 69.9621 32.4462 69.9621 32.5569V33.1658C69.9621 33.2904 69.8589 33.3734 69.741 33.3734H66.6167V35.7398H70.3158C70.4484 35.7398 70.5368 35.8367 70.5368 35.9474V36.5563C70.5368 36.667 70.4484 36.7638 70.3158 36.7638H65.644C65.5113 36.7638 65.4229 36.667 65.4229 36.5563V29.2911Z" fill="black"/>
<path d="M76.8592 29.2911C76.8592 29.1803 76.9476 29.0835 77.0802 29.0835H77.8466C77.9645 29.0835 78.0676 29.1803 78.0676 29.2911V35.7536H81.2362C81.3688 35.7536 81.4573 35.8505 81.4573 35.9612V36.5701C81.4573 36.6808 81.3688 36.7777 81.2362 36.7777H77.0802C76.9476 36.7777 76.8592 36.6808 76.8592 36.5701V29.3049V29.2911Z" fill="black"/>
<path d="M87.2344 29.2911C87.2344 29.1803 87.3228 29.0835 87.4554 29.0835H92.1272C92.2598 29.0835 92.3483 29.1803 92.3483 29.2911V29.8999C92.3483 30.0107 92.2598 30.1075 92.1272 30.1075H88.4281V32.64H91.5524C91.6703 32.64 91.7735 32.7368 91.7735 32.8475V33.4564C91.7735 33.5671 91.6703 33.664 91.5524 33.664H88.4281V36.5563C88.4281 36.667 88.3249 36.7638 88.207 36.7638H87.4407C87.308 36.7638 87.2196 36.667 87.2196 36.5563V29.2911H87.2344Z" fill="black"/>
<path d="M98.4054 29.2911C98.4054 29.1803 98.5085 29.0835 98.6264 29.0835H99.3928C99.5107 29.0835 99.6138 29.1803 99.6138 29.2911V36.5563C99.6138 36.667 99.5107 36.7638 99.3928 36.7638H98.6264C98.5085 36.7638 98.4054 36.667 98.4054 36.5563V29.2911Z" fill="black"/>
<path d="M105.612 36.3625L109.473 30.1767V30.1352H106.172C106.054 30.1352 105.951 30.0383 105.951 29.9276V29.2911C105.951 29.1803 106.054 29.0835 106.172 29.0835H110.976C111.094 29.0835 111.197 29.1803 111.197 29.2911V29.4294L107.322 35.7121H110.741C110.873 35.7121 110.962 35.809 110.962 35.9197V36.5424C110.962 36.6531 110.873 36.75 110.741 36.75H105.833C105.715 36.75 105.612 36.6531 105.612 36.5424V36.3487V36.3625Z" fill="black"/>
<path d="M116.415 36.3625L120.276 30.1767V30.1352H116.975C116.857 30.1352 116.754 30.0383 116.754 29.9276V29.2911C116.754 29.1803 116.857 29.0835 116.975 29.0835H121.779C121.897 29.0835 122 29.1803 122 29.2911V29.4294L118.124 35.7121H121.543C121.676 35.7121 121.764 35.809 121.764 35.9197V36.5424C121.764 36.6531 121.676 36.75 121.543 36.75H116.636C116.518 36.75 116.415 36.6531 116.415 36.5424V36.3487V36.3625Z" fill="black"/>
</svg>
